<?xml version="1.0" encoding="UTF-8" standalone="no"?>
<!-- Created with Inkscape (http://www.inkscape.org/) -->

<svg
   version="1.1"
   id="svg1"
   width="674.58667"
   height="200"
   viewBox="0 0 674.58667 200"
   sodipodi:docname="RUTGERS_H_RED_CMYK.eps"
   xmlns:inkscape="http://www.inkscape.org/namespaces/inkscape"
   xmlns:sodipodi="http://sodipodi.sourceforge.net/DTD/sodipodi-0.dtd"
   xmlns="http://www.w3.org/2000/svg"
   xmlns:svg="http://www.w3.org/2000/svg">
  <defs
     id="defs1" />
  <sodipodi:namedview
     id="namedview1"
     pagecolor="#ffffff"
     bordercolor="#000000"
     borderopacity="0.25"
     inkscape:showpageshadow="2"
     inkscape:pageopacity="0.0"
     inkscape:pagecheckerboard="0"
     inkscape:deskcolor="#d1d1d1">
    <inkscape:page
       x="0"
       y="0"
       inkscape:label="1"
       id="page1"
       width="674.58667"
       height="200"
       margin="0"
       bleed="0" />
  </sodipodi:namedview>
  <g
     id="g1"
     inkscape:groupmode="layer"
     inkscape:label="1">
    <g
       id="group-R5">
      <path
         id="path2"
         d="m 997.887,966 -0.199,-0.102 C 953.785,931.5 886.586,914.102 798.086,914.102 H 622.188 V 1215.9 h 226 c 71.8,0 126.597,-19.1 163.002,-56.7 l 0.6,-0.6 c 24.7,-24.5 36.8,-54.3 36.8,-91.3 0,-39.2 -16.6,-72.402 -50.703,-101.3 z m 545.803,-682.199 -273.3,415.301 c 198.1,80.5 298.5,206.097 298.5,373.498 0,121.5 -48.2,220.4 -147.8,302.5 -102.2,82.9 -241.2,124.8 -413.2,124.8 H -0.0117188 V 1216.1 H 112.785 V 283.801 H -0.0117188 V 0 H 738.887 V 283.801 H 622.188 V 640.898 H 801.086 L 1025.89,283.801 H 903.488 V 0 h 793.502 v 283.801 h -153.3"
         style="fill:#e51635;fill-opacity:1;fill-rule:nonzero;stroke:none"
         transform="matrix(0.13333333,0,0,-0.13333333,0,200)" />
      <path
         id="path3"
         d="m 2019.89,0 h -39.06 v 1500 h 39.06 V 0"
         style="fill:#e51635;fill-opacity:1;fill-rule:nonzero;stroke:none"
         transform="matrix(0.13333333,0,0,-0.13333333,0,200)" />
      <path
         id="path4"
         d="m 2495.21,910.215 c -11.52,4.316 -32.4,7.195 -56.89,7.195 h -36 V 782.043 h 33.84 c 43.21,0 61.93,4.32 75.61,16.562 12.24,11.516 19.44,29.52 19.44,50.403 0,30.965 -12.24,52.566 -36,61.207 z m 52.56,-412.594 c -19.44,33.121 -27.36,46.797 -46.8,82.082 -49.69,90.008 -64.81,114.492 -82.81,122.41 -5.04,2.164 -9.36,3.602 -15.84,4.325 V 497.621 h -98.65 v 500.442 h 186.5 c 88.56,0 146.89,-59.047 146.89,-146.895 0,-74.887 -49.68,-136.813 -111.61,-138.254 10.08,-7.918 14.4,-12.238 20.88,-20.879 25.93,-32.406 102.25,-162.734 120.25,-194.414 h -118.81"
         style="fill:#e51635;fill-opacity:1;fill-rule:nonzero;stroke:none"
         transform="matrix(0.13333333,0,0,-0.13333333,0,200)" />
      <path
         id="path5"
         d="m 3063.3,582.582 c -12.96,-39.598 -61.93,-94.32 -169.94,-94.32 -76.32,0 -132.49,23.039 -160.57,66.965 -16.56,25.918 -21.6,46.082 -21.6,94.324 v 348.512 h 102.96 V 668.992 c 0,-30.965 2.89,-48.961 8.65,-59.762 11.52,-22.324 35.28,-34.566 68.4,-34.566 43.93,0 72.01,21.602 76.33,58.324 1.44,10.801 1.44,18.004 1.44,44.645 v 320.43 h 102.25 V 661.07 c 0,-47.523 -0.72,-56.886 -7.92,-78.488"
         style="fill:#e51635;fill-opacity:1;fill-rule:nonzero;stroke:none"
         transform="matrix(0.13333333,0,0,-0.13333333,0,200)" />
      <path
         id="path6"
         d="m 3466.2,914.531 h -119.53 v -416.91 h -102.25 v 416.91 h -122.41 v 83.532 h 360.75 l -16.56,-83.532"
         style="fill:#e51635;fill-opacity:1;fill-rule:nonzero;stroke:none"
         transform="matrix(0.13333333,0,0,-0.13333333,0,200)" />
      <path
         id="path7"
         d="m 3707.39,491.859 c -74.89,0 -130.33,24.481 -170.66,76.325 -36.72,46.8 -53.28,100.089 -53.28,174.976 0,105.848 34.56,180.738 104.41,227.539 36.72,24.481 74.16,35.281 121.69,35.281 60.48,0 115.21,-19.441 159.13,-57.605 l -53.29,-62.641 c -32.4,26.637 -66.24,38.879 -104.4,38.879 -29.53,0 -54.73,-8.64 -72.01,-25.199 -33.84,-32.406 -42.48,-86.41 -42.48,-161.293 0,-71.289 12.24,-117.375 37.44,-142.574 18.72,-18.004 46.08,-28.086 78.49,-28.086 22.32,0 40.32,3.605 56.88,12.242 v 113.774 h -76.32 l -12.97,82.086 h 193.7 V 536.5 c -51.12,-30.238 -107.29,-44.641 -166.33,-44.641"
         style="fill:#e51635;fill-opacity:1;fill-rule:nonzero;stroke:none"
         transform="matrix(0.13333333,0,0,-0.13333333,0,200)" />
      <path
         id="path8"
         d="m 3947.85,497.621 v 500.442 h 285.14 l -12.96,-82.09 H 4050.1 v -115.93 h 141.85 v -82.09 H 4050.1 v -133.93 h 189.37 v -86.402 h -291.62"
         style="fill:#e51635;fill-opacity:1;fill-rule:nonzero;stroke:none"
         transform="matrix(0.13333333,0,0,-0.13333333,0,200)" />
      <path
         id="path9"
         d="m 4494.34,910.215 c -11.53,4.316 -32.41,7.195 -56.89,7.195 h -36.01 V 782.043 h 33.85 c 43.21,0 61.93,4.32 75.61,16.562 12.24,11.516 19.44,29.52 19.44,50.403 0,30.965 -12.24,52.566 -36,61.207 z m 52.56,-412.594 c -19.44,33.121 -27.36,46.797 -46.8,82.082 -49.69,90.008 -64.81,114.492 -82.81,122.41 -5.04,2.164 -9.36,3.602 -15.85,4.325 V 497.621 h -98.64 v 500.442 h 186.5 c 88.56,0 146.89,-59.047 146.89,-146.895 0,-74.887 -49.69,-136.813 -111.61,-138.254 10.08,-7.918 14.4,-12.238 20.88,-20.879 25.92,-32.406 102.25,-162.734 120.25,-194.414 H 4546.9"
         style="fill:#e51635;fill-opacity:1;fill-rule:nonzero;stroke:none"
         transform="matrix(0.13333333,0,0,-0.13333333,0,200)" />
      <path
         id="path10"
         d="m 4852.71,486.82 c -56.88,0 -120.24,16.559 -170.65,45.36 l 37.45,78.488 c 46.8,-24.48 87.12,-40.324 137.53,-40.324 57.6,0 87.84,23.761 87.84,68.406 0,32.402 -20.88,52.563 -65.52,64.805 l -55.44,15.121 c -49.69,13.683 -80.65,33.121 -98.65,63.367 -13.68,22.32 -20.89,48.246 -20.89,76.324 0,91.449 73.45,154.813 179.3,154.813 61.2,0 123.13,-18.723 167.05,-50.403 l -47.52,-72.004 c -45.36,27.364 -79.21,38.165 -116.65,38.165 -41.04,0 -69.85,-23.766 -69.85,-57.61 0,-25.922 13.69,-38.883 55.45,-50.406 l 60.49,-16.559 c 82.08,-22.32 126.72,-74.886 126.72,-149.05 0,-101.528 -82.08,-168.493 -206.66,-168.493"
         style="fill:#e51635;fill-opacity:1;fill-rule:nonzero;stroke:none"
         transform="matrix(0.13333333,0,0,-0.13333333,0,200)" />
    </g>
  </g>
</svg>
