<?xml version="1.0" encoding="UTF-8" standalone="no"?>
<!-- Created with Inkscape (http://www.inkscape.org/) -->

<svg
   version="1.1"
   id="svg1"
   width="226.28"
   height="263.94666"
   viewBox="0 0 226.28 263.94666"
   sodipodi:docname="RUTGERS_V_RED_BLACK_CMYK.eps"
   xmlns:inkscape="http://www.inkscape.org/namespaces/inkscape"
   xmlns:sodipodi="http://sodipodi.sourceforge.net/DTD/sodipodi-0.dtd"
   xmlns="http://www.w3.org/2000/svg"
   xmlns:svg="http://www.w3.org/2000/svg">
  <defs
     id="defs1" />
  <sodipodi:namedview
     id="namedview1"
     pagecolor="#ffffff"
     bordercolor="#000000"
     borderopacity="0.25"
     inkscape:showpageshadow="2"
     inkscape:pageopacity="0.0"
     inkscape:pagecheckerboard="0"
     inkscape:deskcolor="#d1d1d1">
    <inkscape:page
       x="0"
       y="0"
       inkscape:label="1"
       id="page1"
       width="226.28"
       height="263.94666"
       margin="0"
       bleed="0" />
  </sodipodi:namedview>
  <g
     id="g1"
     inkscape:groupmode="layer"
     inkscape:label="1">
    <g
       id="group-R5">
      <path
         id="path2"
         d="m 1022.37,1415.2 -0.56,-0.41 c -51.009,-39.89 -126.244,-60.1 -223.693,-60.1 H 583.211 v 379.92 c 146.445,0 265.039,0.02 265.039,0.02 82.77,0 147.168,-23.22 191.1,-68.59 32.04,-31.74 48.3,-71.74 48.3,-119.09 0,-50.99 -21.98,-95.34 -65.28,-131.75 m 188.72,-217.38 23.9,9.05 c 198.46,74.77 294.92,187.76 294.92,345.4 0,109.18 -43.69,198.18 -133.4,272.14 -95.09,77.09 -225.85,116.2 -388.6,116.2 0,0 -929.6561,0.06 -968.8475,-0.03 v -205.95 c 6.0508,-0.02 49.2813,-0.04 112.8045,-0.06 V 724.34 H 39.0625 V 518.738 H 699.797 V 724.34 H 583.211 v 435.28 H 822.715 L 1096.71,724.34 H 942.598 V 518.738 H 1658.01 V 724.34 H 1522.7 l -311.61,473.48"
         style="fill:#e51635;fill-opacity:1;fill-rule:nonzero;stroke:none"
         transform="matrix(0.13333333,0,0,-0.13333333,0,263.94667)" />
      <path
         id="path3"
         d="m 997.895,1445.68 -0.196,-0.12 c -43.91,-34.38 -111.082,-51.81 -199.57,-51.81 H 622.277 v 301.78 h 225.985 c 71.738,0 126.609,-19.05 163.028,-56.66 l 0.59,-0.59 c 24.68,-24.47 36.72,-54.33 36.72,-91.33 0,-39.22 -16.58,-72.36 -50.705,-101.27 M 848.262,1734.61 H 583.199 v -379.92 h 214.93 c 97.426,0 172.68,20.21 223.681,60.1 l 0.57,0.41 c 43.3,36.41 65.27,80.76 65.27,131.75 0,47.35 -16.25,87.35 -48.29,119.09 -43.954,45.37 -108.333,68.59 -191.098,68.59"
         style="fill:#231f20;fill-opacity:1;fill-rule:nonzero;stroke:none"
         transform="matrix(0.13333333,0,0,-0.13333333,0,263.94667)" />
      <path
         id="path4"
         d="M 1658,518.738 H 942.594 v 205.621 h 154.136 l -274,435.251 H 583.207 V 724.359 H 699.793 V 518.738 H 39.0586 V 724.359 H 151.863 V 1734.65 H 39.0586 V 1940.6 H 1007.93 c 162.74,0 293.48,-39.1 388.57,-116.19 89.72,-73.95 133.41,-162.94 133.41,-272.12 0,-157.68 -96.47,-270.63 -294.93,-345.41 l -23.9,-9.04 311.64,-473.481 H 1658 Z m -114.24,244.703 -273.37,415.329 c 198.15,80.54 298.6,206.1 298.6,373.52 0,121.52 -48.3,220.39 -147.89,302.46 -102.21,82.9 -241.21,124.84 -413.17,124.84 H 0 V 1695.76 H 112.805 V 763.441 H 0 V 479.66 H 738.895 V 763.441 H 622.285 V 1120.55 H 801.148 L 1025.95,763.441 H 903.535 V 479.66 h 793.545 v 283.781 h -153.32"
         style="fill:#231f20;fill-opacity:1;fill-rule:nonzero;stroke:none"
         transform="matrix(0.13333333,0,0,-0.13333333,0,263.94667)" />
      <path
         id="path5"
         d="m 117.957,260.75 c -7.098,2.66 -19.9531,4.43 -35.0312,4.43 H 60.75 v -83.36 h 20.8438 c 26.6092,0 38.1362,2.66 46.5622,10.2 7.539,7.089 11.973,18.179 11.973,31.039 0,19.062 -7.539,32.371 -22.172,37.691 z M 150.328,6.64844 C 138.355,27.0508 133.477,35.4805 121.508,57.2109 90.9063,112.641 81.5938,127.719 70.5078,132.59 c -3.1055,1.34 -5.7617,2.219 -9.7578,2.66 V 6.64844 H 0 V 314.852 h 114.855 c 54.54,0 90.461,-36.364 90.461,-90.461 0,-46.121 -30.597,-84.262 -68.734,-85.153 6.207,-4.867 8.867,-7.527 12.859,-12.847 C 165.406,106.43 212.41,26.1719 223.496,6.64844 h -73.168"
         style="fill:#231f20;fill-opacity:1;fill-rule:nonzero;stroke:none"
         transform="matrix(0.13333333,0,0,-0.13333333,0,263.94667)" />
      <path
         id="path6"
         d="M 467.809,58.9805 C 459.828,34.5898 429.676,0.890625 363.156,0.890625 c -47.004,0 -81.59,14.187475 -98.886,41.238275 -10.2,15.9609 -13.305,28.3828 -13.305,58.0901 v 214.633 h 63.414 V 112.199 c 0,-19.0701 1.773,-30.1599 5.32,-36.8084 7.094,-13.75 21.731,-21.289 42.125,-21.289 27.055,0 44.348,13.3086 47.008,35.9179 0.887,6.6524 0.887,11.0895 0.887,27.5005 v 197.332 h 62.972 V 107.32 c 0,-29.2692 -0.445,-35.0387 -4.882,-48.3395"
         style="fill:#231f20;fill-opacity:1;fill-rule:nonzero;stroke:none"
         transform="matrix(0.13333333,0,0,-0.13333333,0,263.94667)" />
      <path
         id="path7"
         d="M 715.938,263.41 H 642.324 V 6.64844 H 579.355 V 263.41 h -75.386 v 51.442 H 726.137 L 715.938,263.41"
         style="fill:#231f20;fill-opacity:1;fill-rule:nonzero;stroke:none"
         transform="matrix(0.13333333,0,0,-0.13333333,0,263.94667)" />
      <path
         id="path8"
         d="m 864.469,3.10938 c -46.117,0 -80.266,15.07032 -105.094,47.00002 -22.617,28.832 -32.816,61.6406 -32.816,107.7616 0,65.188 21.285,111.309 64.296,140.129 22.618,15.078 45.676,21.73 74.942,21.73 37.254,0 70.953,-11.98 98.004,-35.48 l -32.817,-38.578 c -19.953,16.406 -40.796,23.949 -64.3,23.949 -18.18,0 -33.7,-5.32 -44.344,-15.519 -20.84,-19.961 -26.16,-53.223 -26.16,-99.332 0,-43.911 7.539,-72.2895 23.058,-87.8091 11.528,-11.082 28.379,-17.289 48.332,-17.289 13.75,0 24.836,2.2187 35.035,7.539 V 127.27 h -47.003 l -7.985,50.55 H 966.902 V 30.6016 C 935.422,11.9805 900.828,3.10938 864.469,3.10938"
         style="fill:#231f20;fill-opacity:1;fill-rule:nonzero;stroke:none"
         transform="matrix(0.13333333,0,0,-0.13333333,0,263.94667)" />
      <path
         id="path9"
         d="M 1012.55,6.64844 V 314.852 h 175.61 l -7.98,-50.551 h -104.66 v -71.403 h 87.36 v -50.546 h -87.36 V 59.8711 h 116.63 V 6.64844 h -179.6"
         style="fill:#231f20;fill-opacity:1;fill-rule:nonzero;stroke:none"
         transform="matrix(0.13333333,0,0,-0.13333333,0,263.94667)" />
      <path
         id="path10"
         d="m 1349.11,260.75 c -7.1,2.66 -19.96,4.43 -35.04,4.43 h -22.17 v -83.36 h 20.84 c 26.61,0 38.14,2.66 46.57,10.2 7.53,7.089 11.97,18.179 11.97,31.039 0,19.062 -7.54,32.371 -22.17,37.691 z M 1381.48,6.64844 c -11.98,20.40236 -16.85,28.83206 -28.83,50.56246 -30.6,55.4301 -39.91,70.5081 -50.99,75.3791 -3.11,1.34 -5.77,2.219 -9.76,2.66 V 6.64844 h -60.75 V 314.852 H 1346 c 54.54,0 90.46,-36.364 90.46,-90.461 0,-46.121 -30.59,-84.262 -68.73,-85.153 6.21,-4.867 8.87,-7.527 12.86,-12.847 15.96,-19.961 62.97,-100.2191 74.05,-119.74256 h -73.16"
         style="fill:#231f20;fill-opacity:1;fill-rule:nonzero;stroke:none"
         transform="matrix(0.13333333,0,0,-0.13333333,0,263.94667)" />
      <path
         id="path11"
         d="m 1569.81,0 c -35.03,0 -74.05,10.1992 -105.09,27.9414 l 23.06,48.3399 c 28.82,-15.0821 53.65,-24.8399 84.69,-24.8399 35.48,0 54.1,14.6367 54.1,42.1289 0,19.9607 -12.86,32.3707 -40.35,39.9097 l -34.14,9.309 c -30.6,8.43 -49.67,20.402 -60.76,39.031 -8.42,13.739 -12.86,29.711 -12.86,47 0,56.321 45.24,95.34 110.42,95.34 37.69,0 75.83,-11.531 102.88,-31.039 l -29.27,-44.34 c -27.93,16.848 -48.78,23.5 -71.83,23.5 -25.28,0 -43.02,-14.64 -43.02,-35.48 0,-15.961 8.43,-23.942 34.15,-31.039 l 37.25,-10.203 c 50.55,-13.739 78.04,-46.118 78.04,-91.789 C 1697.08,41.2383 1646.53,0 1569.81,0"
         style="fill:#231f20;fill-opacity:1;fill-rule:nonzero;stroke:none"
         transform="matrix(0.13333333,0,0,-0.13333333,0,263.94667)" />
    </g>
  </g>
</svg>
