<?xml version="1.0" standalone="no"?><!DOCTYPE svg PUBLIC "-//W3C//DTD SVG 1.1//EN" "http://www.w3.org/Graphics/SVG/1.1/DTD/svg11.dtd"><svg t="1771874439690" class="icon" viewBox="0 0 1024 1024" version="1.1" xmlns="http://www.w3.org/2000/svg" p-id="1091" xmlns:xlink="http://www.w3.org/1999/xlink" width="128" height="128"><path d="M455.111 682.668H341.334V568.891h113.777v113.777z m227.555 0H568.889V568.891h113.777v113.777zM341.333 342h113.444v113.109H569V342h113.667V227.555h113.777v113.777h113.778v113.777H796.444v113.778H682.667v-113.11h-0.001v113.11H341.334v-113.11h-0.001v113.11H227.556V455.109H113.778V341.332h113.778V227.555h113.777V342zM113.777 455.109H0V341.332h113.777v113.777zM1024 341.332v113.777H910.223V341.332H1024zM568.889 113.777h113.777v113.778H568.889v113.777H455.111V227.555H341.334V113.777h113.777V0h113.778v113.777z" fill="#D5EEF2" p-id="1092"></path><path d="M568.889 568.891v113.777H455.111V568.891h113.778z" fill="#D6E2DF" p-id="1093"></path><path d="M341.333 796.445H227.556V682.668h113.777v113.777z m455.111 0H682.667V682.668h113.777v113.777zM227.556 682.668H113.778V568.891h113.778v113.777z m682.666 0H796.444V568.891h113.778v113.777zM113.777 568.887H0V455.109h113.777v113.778zM1024 455.109v113.778H910.223V455.109H1024z" fill="#FBF4E5" p-id="1094"></path><path d="M568.889 341.332v113.777H455.111V341.332h113.778z" fill="#F8E2AD" p-id="1095"></path><path d="M568.889 341.332v113.777H455.111V341.332h113.778z" fill="#F8E2AD" p-id="1096"></path><path d="M455.111 227.555v113.777H341.333V227.555h113.778z m227.555 0v113.777H568.889V227.555h113.777z" fill="#222423" p-id="1097"></path><path d="M682.666 796.445H341.334V682.668h341.332v113.777zM341.333 682.668H227.556V568.891h113.777v113.777z m455.111 0H682.667V568.891h113.777v113.777zM227.556 455.109v113.778H113.777V455.109h113.779z m682.666 113.778H796.444V455.109h113.778v113.778z" fill="#F0C7A1" p-id="1098"></path><path d="M682.666 796.445v113.778H341.333V796.445h341.333z" fill="#C8926D" p-id="1099"></path></svg>